HIERARCHY
ROOT SimulationBone
{
	OFFSET 0.000000 0.000000 0.000000
	CHANNELS 6 Xposition Yposition Zposition Zrotation Yrotation Xrotation 
	JOINT Hips
	{
		OFFSET 0.000000 0.000000 0.000000
		CHANNELS 6 Xposition Yposition Zposition Zrotation Yrotation Xrotation 
		JOINT LeftUpLeg
		{
			OFFSET 0.103461 1.857828 10.548504
			CHANNELS 3 Zrotation Yrotation Xrotation
			JOINT LeftLeg
			{
				OFFSET 43.500008 -0.000031 0.000006
				CHANNELS 3 Zrotation Yrotation Xrotation
				JOINT LeftFoot
				{
					OFFSET 42.372200 0.000019 -0.000010
					CHANNELS 3 Zrotation Yrotation Xrotation
					JOINT LeftToe
					{
						OFFSET 17.299999 -0.000000 0.000002
						CHANNELS 3 Zrotation Yrotation Xrotation
						End Site
						{
							OFFSET 0.000000 0.000000 0.000000
						}
					}
				}
			}
		}
		JOINT RightUpLeg
		{
			OFFSET 0.103457 1.857829 -10.548504
			CHANNELS 3 Zrotation Yrotation Xrotation
			JOINT RightLeg
			{
				OFFSET 43.500046 -0.000019 0.000011
				CHANNELS 3 Zrotation Yrotation Xrotation
				JOINT RightFoot
				{
					OFFSET 42.372261 0.000000 0.000008
					CHANNELS 3 Zrotation Yrotation Xrotation
					JOINT RightToe
					{
						OFFSET 17.299990 -0.000006 0.000008
						CHANNELS 3 Zrotation Yrotation Xrotation
						End Site
						{
							OFFSET 0.000000 0.000000 0.000000
						}
					}
				}
			}
		}
		JOINT Spine
		{
			OFFSET 6.901969 -2.603727 -0.000006
			CHANNELS 3 Zrotation Yrotation Xrotation
			JOINT Spine1
			{
				OFFSET 12.588100 -0.000002 0.000002
				CHANNELS 3 Zrotation Yrotation Xrotation
				JOINT Spine2
				{
					OFFSET 12.343195 0.000004 0.000008
					CHANNELS 3 Zrotation Yrotation Xrotation
					JOINT Neck
					{
						OFFSET 25.832905 -0.000008 -0.000002
						CHANNELS 3 Zrotation Yrotation Xrotation
						JOINT Head
						{
							OFFSET 11.766608 0.000010 -0.000008
							CHANNELS 3 Zrotation Yrotation Xrotation
							End Site
							{
								OFFSET 0.000000 0.000000 0.000000
							}
						}
					}
					JOINT LeftShoulder
					{
						OFFSET 19.745903 -1.480370 6.000106
						CHANNELS 3 Zrotation Yrotation Xrotation
						JOINT LeftArm
						{
							OFFSET 11.284119 -0.000006 -0.000014
							CHANNELS 3 Zrotation Yrotation Xrotation
							JOINT LeftForeArm
							{
								OFFSET 33.000050 0.000004 0.000026
								CHANNELS 3 Zrotation Yrotation Xrotation
								JOINT LeftHand
								{
									OFFSET 25.200020 0.000017 0.000004
									CHANNELS 3 Zrotation Yrotation Xrotation
									End Site
									{
										OFFSET 0.000000 0.000000 0.000000
									}
								}
							}
						}
					}
					JOINT RightShoulder
					{
						OFFSET 19.746099 -1.480375 -6.000082
						CHANNELS 3 Zrotation Yrotation Xrotation
						JOINT RightArm
						{
							OFFSET 11.284140 -0.000015 -0.000008
							CHANNELS 3 Zrotation Yrotation Xrotation
							JOINT RightForeArm
							{
								OFFSET 33.000084 0.000016 0.000002
								CHANNELS 3 Zrotation Yrotation Xrotation
								JOINT RightHand
								{
									OFFSET 25.199783 0.000142 0.000437
									CHANNELS 3 Zrotation Yrotation Xrotation
									End Site
									{
										OFFSET 0.000000 0.000000 0.000000
									}
								}
							}
						}
					}
				}
			}
		}
	}
}
MOTION
Frames: 14
Frame Time: 0.033333
77.258574 0.000000 -16.143611 0.000000 181.330869 0.000000 0.677950 89.573151 1.219151 94.713300 2.120465 179.061013 161.137522 -2.241501 -177.361161 -16.209033 -0.691877 -1.568411 66.777872 0.236954 -2.565490 21.454558 0.003108 0.000017 -162.803761 -2.575806 178.769724 -8.407182 4.309797 4.667330 88.653055 -3.412293 -0.855191 21.454553 -0.003092 0.000000 7.636948 0.453072 0.073170 5.261862 0.902418 0.166736 4.943737 0.903271 0.161280 12.675744 -7.720780 -2.413508 -17.849950 8.027700 -5.910741 170.273501 -69.957974 8.706608 -13.343259 53.966797 33.610531 -31.275183 -19.041099 1.540102 7.211951 -2.899420 7.518213 -172.190695 75.962714 9.441767 -33.790906 -50.687230 -29.610738 -35.341004 17.006205 -1.472691 2.690726 11.223497 0.207176 
74.856061 0.000000 -15.725948 0.000000 181.114145 0.000000 0.792244 89.709267 0.965607 94.668281 1.062555 179.414621 161.434267 -0.402893 -177.192497 -18.802524 -0.297459 -1.842658 69.224370 0.715841 -1.875302 21.454558 0.003108 0.000017 -162.154114 -1.250198 179.408866 -10.073061 4.057015 4.497234 88.228053 -3.134359 0.140467 21.454553 -0.003091 -0.000000 7.628835 0.093760 0.002504 5.244833 0.187361 0.009227 4.926732 0.187276 0.008091 12.760887 -7.983761 -2.528601 -18.180640 8.661832 -6.305772 171.127480 -69.393568 7.845471 -13.659484 52.900792 34.139464 -30.216146 -18.339411 1.473639 7.098462 -3.390199 7.076423 -172.060211 74.940323 9.569309 -32.637410 -51.749273 -30.128764 -33.153735 16.459110 -1.388169 3.001350 11.571189 0.913325 
72.488448 0.000000 -15.291817 0.000000 180.880321 0.000000 0.982616 89.931732 0.880612 94.832840 0.881282 179.838275 162.099158 0.032104 -178.522444 -21.129834 -0.114826 -1.049766 71.618003 0.378957 -1.250283 21.454560 0.003108 0.000017 -161.867738 -0.848694 179.985867 -12.634054 3.801385 4.255739 86.705809 -2.816776 1.030891 21.454551 -0.003093 0.000000 7.681571 -0.051199 0.034376 5.350250 -0.103870 0.066363 5.032158 -0.103605 0.066985 12.471426 -8.457373 -2.707784 -17.360664 9.307411 -6.702005 171.390907 -69.452348 7.571838 -14.357278 52.755104 34.078057 -28.872511 -17.775308 1.411498 7.735363 -3.451860 7.290739 -172.003807 75.405329 9.629693 -31.553186 -54.649976 -29.281322 -30.173423 15.947720 -1.293823 3.296784 11.618137 1.676483 
70.157499 0.000000 -14.850574 0.000000 180.641306 0.000000 1.185861 90.384453 0.811547 94.922395 1.005936 179.719848 163.728814 -0.110107 -179.366642 -21.524441 -0.414339 -0.714475 73.021730 0.480825 -0.209562 21.454557 0.003108 0.000017 -162.251881 -0.352997 -179.222292 -15.970423 3.638067 3.382428 84.283093 -2.019799 1.976365 21.454558 -0.003091 0.000001 7.718468 -0.083813 0.194614 5.423831 -0.176547 0.385109 5.105723 -0.174355 0.386164 12.167414 -8.994224 -2.884953 -16.521767 9.616603 -6.968915 171.383913 -69.871210 7.565377 -14.721721 53.294679 33.882888 -28.259619 -17.684854 1.394261 8.668679 -2.818083 8.165382 -174.494504 76.292052 7.089118 -29.140056 -57.731327 -28.573186 -27.435989 15.286360 -1.200799 4.499411 11.280469 2.559348 
67.862542 0.000000 -14.408751 0.000000 180.398465 0.000000 1.273607 90.871490 0.681259 94.954886 1.052792 179.122624 165.780835 -0.181000 179.718670 -20.910747 -0.700689 -0.633863 74.107423 0.656632 0.549635 21.454555 0.003108 0.000017 -163.903776 0.653396 -177.928941 -21.185278 3.446134 1.920228 81.572956 -0.764951 2.871338 21.454553 -0.003091 0.000001 7.748043 -0.113804 0.391344 5.482420 -0.245858 0.776889 5.164346 -0.241299 0.778355 11.691761 -9.484991 -2.969442 -15.229681 9.181668 -6.841981 171.831481 -69.754161 7.107818 -14.556436 53.260565 33.949264 -28.332921 -17.528801 1.385694 9.163371 -2.771148 8.656489 -176.162791 77.030074 5.393303 -27.084038 -59.717847 -29.101500 -25.163684 14.128551 -1.089111 5.566109 9.854242 4.360752 
65.602710 0.000000 -13.972390 0.000000 180.155370 0.000000 1.350604 91.306236 0.506777 94.928538 0.837094 178.646730 168.022667 0.103104 179.348145 -19.683190 -1.173774 -0.830555 74.961640 0.997279 1.228177 21.454558 0.003108 0.000017 -166.522088 2.049698 -175.888013 -27.905047 3.080100 0.380220 78.331143 0.416995 2.960419 21.454551 -0.003092 0.000000 7.742159 -0.199653 0.436603 5.469922 -0.419542 0.863340 5.151847 -0.414458 0.865853 11.674282 -9.914347 -2.743411 -14.613646 8.890505 -6.473582 172.868618 -69.672315 6.041091 -13.820358 53.007193 35.065826 -28.889737 -17.547789 1.397335 9.262793 -2.784652 7.916905 -178.256831 77.313309 3.260482 -25.175384 -60.525523 -31.516214 -23.482645 13.293454 -1.010439 5.654899 5.843509 4.572301 
63.373794 0.000000 -13.555755 0.000000 179.909197 0.000000 1.361256 91.610497 0.350959 95.032962 0.501446 178.185390 170.336708 0.584106 -179.984692 -18.370685 -1.866563 -1.618043 75.803741 1.687941 1.703179 21.454557 0.003108 0.000017 -170.007780 3.831497 -173.795133 -36.179287 2.414122 -1.046074 75.070418 1.884490 4.142955 21.454551 -0.003092 0.000000 7.764205 -0.301505 0.416386 5.513422 -0.622335 0.818027 5.195332 -0.617520 0.821766 11.646208 -10.311330 -2.342743 -14.227135 8.831479 -6.024725 173.800393 -69.896174 5.073698 -13.199167 52.808595 36.397914 -29.592901 -17.339753 1.397572 8.675341 -3.315719 6.885188 -177.392908 77.259555 4.141035 -23.763362 -60.786143 -33.480829 -22.597906 13.123975 -0.987163 4.415792 1.426581 0.223232 
61.177437 0.000000 -13.164288 0.000000 179.659381 0.000000 1.395325 91.838280 0.168828 95.355163 0.332188 177.635113 172.886076 0.937195 -179.603745 -17.008926 -2.461200 -2.278094 76.754203 2.288318 2.227440 21.454557 0.003108 0.000017 -173.953320 5.498902 -172.573171 -45.136725 1.530501 -1.681429 72.256073 3.027609 5.835247 21.454558 -0.003090 0.000001 7.856548 -0.381703 0.394623 5.697731 -0.782212 0.770088 5.379628 -0.777685 0.774794 11.285627 -10.162130 -1.941727 -13.891189 8.386574 -5.449702 173.675086 -70.069230 5.197791 -12.682703 52.252064 37.961645 -30.276965 -17.189293 1.401428 8.357758 -3.735304 5.666210 -176.184593 77.039015 5.371189 -22.236924 -60.758098 -34.428351 -22.811942 13.335367 -1.003624 3.564546 -2.041821 -5.562977 
59.015188 0.000000 -12.799822 0.000000 179.409055 0.000000 1.371401 91.944099 -0.043088 95.646086 0.134902 177.164129 175.177113 1.414200 -179.985361 -15.950824 -2.723782 -2.471453 77.771894 2.544568 2.764681 21.454558 0.003108 0.000017 -178.200196 6.831896 -172.154863 -53.562651 0.765288 -1.247113 71.179068 2.754603 5.675251 21.454557 -0.003091 0.000000 7.952867 -0.456124 0.312480 5.890646 -0.927427 0.601466 5.572517 -0.923915 0.607052 11.105824 -9.946642 -1.508820 -14.238620 7.993738 -4.896461 173.578521 -69.967570 5.300363 -12.477232 51.308589 39.308975 -30.823052 -17.127362 1.408445 8.385560 -3.645159 5.520391 -175.049402 76.846527 6.527888 -21.264920 -60.520899 -34.762859 -23.344967 13.510947 -1.022361 3.514734 -3.188991 -6.874690 
56.888058 0.000000 -12.469226 0.000000 179.165123 0.000000 1.296088 91.976341 -0.174579 96.054620 0.042023 177.150166 177.134126 1.791901 179.423687 -15.599146 -2.797970 -2.270216 78.817917 2.488459 3.217474 21.454558 0.003108 0.000017 178.215058 7.504302 -171.811974 -59.638719 0.140849 -0.727415 72.674108 2.056331 4.855330 21.454551 -0.003091 0.000000 8.070107 -0.462269 0.141050 6.126500 -0.931266 0.257545 5.808349 -0.929830 0.263161 11.316950 -9.705246 -1.227980 -14.710498 7.389579 -4.400405 173.080094 -69.488302 5.828542 -12.911106 49.906819 40.868765 -30.412503 -16.744332 1.375681 8.076195 -4.082473 5.251947 -173.304302 76.637140 8.308228 -20.834744 -60.157608 -34.823204 -23.773689 13.598137 -1.034137 3.601036 -1.219532 -2.802340 
54.789352 0.000000 -12.179011 0.000000 178.938431 0.000000 1.193603 92.045280 -0.163072 96.319711 0.252699 177.610630 178.713348 1.808900 179.240310 -15.589002 -2.773484 -2.024798 79.824052 2.348879 3.489726 21.454558 0.003108 0.000017 175.110095 7.406496 -171.865250 -62.696731 0.204150 -0.901603 74.442935 1.850577 4.046649 21.454551 -0.003092 0.000000 8.164941 -0.375488 -0.088803 6.317810 -0.745531 -0.197894 5.999682 -0.746850 -0.193392 11.477419 -9.281962 -1.091180 -14.929457 6.695165 -3.995095 172.117994 -69.149498 6.831619 -13.938113 48.830856 41.488570 -29.308062 -16.207880 1.319836 8.222246 -3.810857 5.882347 -171.107495 76.537584 10.551795 -20.597511 -59.978999 -34.568209 -24.562487 13.950093 -1.068412 3.742095 1.808912 1.971913 
52.710781 0.000000 -11.940117 0.000000 178.739952 0.000000 1.078462 92.024727 -0.087144 96.511382 0.393330 178.220934 179.872308 1.893601 179.070430 -16.188163 -2.534586 -1.727479 81.007177 2.110169 3.562460 21.454560 0.003108 0.000017 172.388565 7.109299 -172.130206 -63.111658 0.693569 -1.314180 75.722721 2.052902 3.954298 21.454545 -0.003094 0.000000 8.229035 -0.292969 -0.332356 6.446954 -0.566980 -0.680457 6.128875 -0.571217 -0.677025 11.669849 -8.747959 -1.033603 -14.880052 6.238420 -3.727644 171.142192 -69.194727 7.836857 -15.426208 48.451989 41.146689 -27.619791 -15.667957 1.254223 8.433566 -3.465151 7.169920 -169.314379 76.384792 12.383717 -20.036044 -59.764681 -34.103637 -25.877828 14.376599 -1.116379 3.990860 5.282444 3.147196 
50.644979 0.000000 -11.752980 0.000000 178.562815 0.000000 0.944905 91.969910 0.007193 96.568920 0.566009 178.759056 -179.224137 1.810501 178.741611 -17.003259 -2.389584 -1.365862 82.236666 1.817936 3.592410 21.454558 0.003108 0.000017 170.111462 6.309496 -172.582829 -61.042664 1.403045 -1.451357 78.309505 1.702169 2.736320 21.454541 -0.003093 0.000000 8.245187 -0.200184 -0.539286 6.479305 -0.369917 -1.088888 6.161282 -0.376623 -1.086641 12.058082 -8.217729 -1.003366 -14.927457 5.940676 -3.537601 169.888388 -69.471247 9.120404 -16.449341 48.619288 39.692060 -26.450130 -15.450617 1.220066 9.106844 -2.712839 9.105954 -168.483719 76.385892 13.232603 -19.223866 -59.517906 -34.129041 -27.464549 14.966930 -1.180896 4.063705 7.700717 2.443865 
48.588146 0.000000 -11.620836 0.000000 178.387017 0.000000 0.838914 91.815857 0.072689 96.544328 0.477313 179.080399 -178.468431 1.914200 178.355623 -17.975726 -2.355405 -1.091016 83.464768 1.564589 3.504346 21.454557 0.003108 0.000017 168.119601 5.566498 -173.644391 -57.062863 2.463624 -1.021350 80.961306 1.047778 1.690308 21.454551 -0.003094 0.000000 8.241947 -0.162540 -0.695177 6.472824 -0.286032 -1.398315 6.154816 -0.294607 -1.396567 12.196326 -7.712432 -0.977273 -14.891795 5.762976 -3.410352 168.947816 -69.746729 10.079903 -17.301923 48.753808 38.386387 -25.923416 -15.490784 1.213814 9.797647 -1.826707 9.800521 -167.821518 76.382791 13.909372 -18.873831 -59.098321 -34.640339 -28.761356 15.492076 -1.237796 3.931903 8.982528 1.927615 
